<svg width="60" height="60" viewBox="0 0 60 60" fill="none" xmlns="http://www.w3.org/2000/svg">
<path d="M34.2003 27.4331C33.3865 25.6944 30.7695 23.6693 29.0882 25.0999C26.6596 25.112 25.2353 27.9993 25.3712 30.412C25.5804 34.1218 29.5324 35.5977 32.588 34.3149C35.3328 33.1625 35.3049 29.7911 34.2003 27.4331ZM30.4862 33.4898C30.8763 33.4296 31.266 33.3104 31.6434 33.1322C31.6859 33.1687 31.7309 33.1993 31.7762 33.2312C31.3617 33.3954 30.9247 33.4794 30.4862 33.4898Z" fill="black"/>
<path d="M42.5732 19.6729C42.5931 19.0838 42.5578 18.4935 42.5154 17.9407C42.4883 17.5869 42.2293 17.2922 41.8413 17.2913C41.0924 17.2891 38.6801 17.0079 37.857 17.6737C37.6271 17.4306 37.1333 17.5164 37.1042 17.941C36.9902 19.5971 36.9128 21.2519 36.9004 22.9118C36.8984 23.1712 37.0951 23.4511 37.3694 23.5052C37.7172 23.5734 38.0791 23.6272 38.4423 23.6555C38.4668 23.6945 38.4965 23.7313 38.5331 23.7643C39.3764 24.5361 41.0326 23.9471 42.0163 23.7996C42.2309 23.7672 42.4265 23.5508 42.4759 23.3565C42.7793 22.1743 42.8498 20.8685 42.5732 19.6729Z" fill="black"/>
<path d="M43.1799 28.507C43.1344 28.1259 42.8446 27.9134 42.5454 27.8713C42.9275 27.4653 42.5757 26.6064 41.8913 26.7714C40.9319 27.0025 39.9489 27.0071 38.9821 26.8126C38.6262 26.741 38.3753 26.9764 38.3057 27.2496C38.1884 27.3937 38.13 27.5895 38.1909 27.8258C39.7245 33.7739 36.587 38.611 30.383 38.7277C24.5575 38.8375 20.829 34.3295 22.0138 28.5956C22.0551 28.3962 22.0299 28.1298 21.8565 27.9922C21.8565 27.9922 21.8342 27.9713 21.8059 27.9451C21.9297 27.7265 21.9377 27.4392 21.724 27.198C21.7046 27.1764 21.6818 27.16 21.6608 27.1408C21.7059 27.0326 21.7411 26.9169 21.753 26.7851C21.7765 26.526 21.5209 26.3073 21.282 26.3076C21.0276 26.3079 20.8197 26.3854 20.6156 26.4858C20.5595 26.4616 20.4999 26.4416 20.4325 26.4328C19.17 26.2658 18.0098 26.6341 16.7524 26.7302C16.4168 26.7557 16.1299 26.9969 16.1318 27.3594C16.1435 29.2728 16.1518 31.1862 16.168 33.0996C16.1647 33.2258 16.2021 33.3238 16.2537 33.4078C16.3098 36.1504 17.1296 39.0326 18.2583 40.8457C20.6014 44.6097 26.1739 44.3087 30.01 44.5286C33.2874 44.7162 40.3052 45.6223 42.2917 42.058C44.3118 38.4341 43.6467 32.4626 43.1799 28.507ZM39.5753 39.2225C39.5653 39.213 39.5562 39.2009 39.5453 39.1915C39.7174 38.559 39.8657 37.9226 39.9857 37.2784C40.0176 37.1928 40.0501 37.1071 40.083 37.0215C40.0688 37.1385 40.0511 37.2545 40.0353 37.3709C39.8738 37.986 39.7203 38.6035 39.5753 39.2225ZM38.2786 42.9042C38.582 42.744 38.8725 42.5486 39.1439 42.3096L39.2284 42.3381C39.2964 42.3609 39.3599 42.3688 39.4221 42.3694C39.4627 42.4276 39.5143 42.4767 39.572 42.5182C39.1507 42.7385 38.6855 42.9068 38.19 43.0333C38.2254 42.9934 38.2564 42.9525 38.2786 42.9042ZM20.8336 28.2661C20.7436 28.5881 20.674 28.9051 20.615 29.2189C20.596 29.0159 20.5721 28.8126 20.5424 28.609C20.6614 28.4717 20.7159 28.2779 20.6891 28.0984C20.7552 28.1158 20.8207 28.1354 20.8819 28.1615C20.8651 28.1955 20.8445 28.2266 20.8336 28.2661ZM30.0751 43.1882C30.5194 43.1588 30.9643 43.1307 31.4089 43.098C31.4095 43.148 31.4118 43.1961 31.4211 43.2457C31.1493 43.2297 30.8892 43.2163 30.6458 43.2068C30.461 43.199 30.2686 43.1938 30.0751 43.1882Z" fill="black"/>
<path d="M51.0661 9.53248C47.8474 5.48898 43.4781 2.39135 38.5284 0.874713C33.454 -0.680406 27.6537 0.0365206 22.6414 1.47781C12.6714 4.34552 5.03285 12.2815 2.34923 22.2334C1.33344 25.9995 1.12872 29.7484 1.61135 33.378C1.61135 33.3928 1.60552 33.4045 1.6065 33.4203C1.67387 34.2307 1.82255 34.9955 2.02208 35.7325C3.03139 40.3335 5.15788 44.6981 8.21011 48.598C13.4828 55.3353 22.5598 61.0261 31.3501 58.9645C31.345 59.394 31.6841 59.8266 32.2085 59.653C42.7117 56.179 52.3783 50.1897 56.5972 39.5254C60.6261 29.3455 57.717 17.8869 51.0661 9.53248ZM2.80206 32.9081C2.71266 32.1427 2.65662 31.3753 2.63751 30.6076C2.6482 30.6842 2.65954 30.7609 2.6712 30.8375C2.71493 31.5548 2.79169 32.2639 2.88336 32.9676C2.85712 32.9466 2.82862 32.9282 2.80206 32.9081ZM5.7866 29.3112C5.75388 29.426 5.72052 29.5401 5.68651 29.6543C5.67711 29.4292 5.66707 29.2041 5.66513 28.9784C5.70789 28.8294 5.74967 28.6803 5.79145 28.5309C5.7866 28.7909 5.78401 29.0509 5.7866 29.3112ZM28.8625 54.468C28.4285 54.3816 27.9944 54.2959 27.5604 54.2115C27.9973 54.249 28.434 54.2966 28.8709 54.3399C28.8622 54.3829 28.8631 54.4256 28.8625 54.468ZM46.1047 50.8807C46.3509 50.7828 46.5958 50.6767 46.8387 50.5632C46.6369 50.7262 46.4387 50.8934 46.2327 51.0521C46.199 50.9888 46.1549 50.9312 46.1047 50.8807ZM31.2539 11.0892C31.5085 11.1002 31.7618 11.1174 32.0151 11.1368C32.0145 11.1387 32.0135 11.1403 32.0129 11.1419C31.457 11.1694 30.9022 11.2085 30.3489 11.2622C30.6511 11.2076 30.9524 11.1484 31.2539 11.0892ZM9.704 42.7333C9.57476 42.2948 9.44714 41.8553 9.31433 41.4181C9.53589 41.94 9.76879 42.4577 10.0082 42.9729C9.90807 42.8927 9.80571 42.8131 9.704 42.7333ZM11.0868 16.8764C10.9896 16.9462 10.8895 17.0122 10.7898 17.0788C10.7477 17.0455 10.7049 17.0135 10.6557 16.9912C10.8792 16.7907 11.0952 16.584 11.3126 16.3777C11.2322 16.5407 11.1584 16.7079 11.0868 16.8764ZM12.4093 38.6542C12.4142 38.4324 12.4145 38.2108 12.4203 37.9887C12.4388 38.0207 12.4521 38.0546 12.4709 38.086C12.4793 38.0999 12.4903 38.107 12.5 38.1187C12.5531 38.4838 12.6199 38.8456 12.697 39.2043C12.5998 39.0219 12.5055 38.8375 12.4093 38.6542ZM15.9296 43.1507C12.9804 40.0803 13.5203 34.6501 13.7668 30.7838C14.0146 26.902 14.633 22.863 14.0192 18.9838C14.0901 18.794 14.1824 18.6226 14.2715 18.4483C14.7107 17.9519 15.1195 17.4332 15.4842 16.8845C18.1484 14.5419 23.1059 14.464 26.2738 14.3576C30.7875 14.2062 35.6336 13.7658 40.0744 14.6813C45.4624 15.7921 46.4808 20.6363 46.4189 25.4688C46.3551 30.4698 46.599 35.7005 45.2289 40.5556C43.4817 46.7448 36.9555 46.5533 31.595 46.4802C28.7929 46.4421 25.9939 46.2122 23.2063 45.9408C20.4845 45.6763 17.8948 45.1974 15.9296 43.1507ZM24.2979 57.5585C25.5136 57.7312 26.7331 57.8767 27.9559 58.0044C26.714 57.9627 25.4922 57.8136 24.2979 57.5585Z" fill="black"/>
</svg>
